name processed_emg_signals						
nRows=129						
nColumns=7						
 						
endheader						
time	LGLTMED	LRF	LADDLONG	LST	LTA	LGM
0	0.018232561	0.017052627	0.017106481	0.008639783	0.009487935	0.002353423
0.001	0.01955253	0.020363985	0.014896657	0.009333274	0.008442958	0.004337019
0.002	0.02087568	0.023674011	0.012696771	0.010028226	0.007385521	0.006324972
0.003	0.02220119	0.026980478	0.010508125	0.010724185	0.006315814	0.008316373
0.004	0.023528234	0.030281154	0.008332007	0.011420691	0.005234032	0.010310318
0.005	0.024855987	0.033573802	0.006169695	0.012117283	0.00414037	0.012305912
0.006	0.026183621	0.036856184	0.004022451	0.012813499	0.003035028	0.014302266
0.007	0.027510309	0.040126063	0.001891518	0.013508876	0.001918208	0.016298504
0.008	0.028835227	0.043381207	0.000221877	0.014202952	0.000790112	0.018293761
0.009	0.030157553	0.04661939	0.002316525	0.014895261	0.000349051	0.020287182
0.01	0.031476468	0.0498384	0.00439124	0.015585345	0.001499075	0.02227793
0.011	0.032791161	0.053036033	0.006444859	0.016272741	0.00265975	0.024265182
0.012	0.034100825	0.056210105	0.008476242	0.016956992	0.003830863	0.026248132
0.013	0.035404664	0.059358447	0.010484272	0.017637645	0.0050122	0.028225993
0.014	0.036701888	0.062478913	0.01246786	0.018314247	0.006203547	0.030197996
0.015	0.037991718	0.06556938	0.014425946	0.018986351	0.007404685	0.032163393
0.016	0.039273389	0.068627753	0.016357496	0.019653517	0.008615398	0.034121459
0.017	0.040546144	0.071651963	0.018261506	0.020315307	0.009835462	0.036071491
0.018	0.041809243	0.074639974	0.020137005	0.02097129	0.011064658	0.03801281
0.019	0.043061958	0.077589782	0.021983051	0.021621042	0.01230276	0.039944761
0.02	0.044303579	0.080499421	0.023798735	0.022264147	0.013549542	0.041866717
0.021	0.045533409	0.083366961	0.025583183	0.022900193	0.014804777	0.043778077
0.022	0.046750773	0.086190513	0.027335554	0.02352878	0.016068236	0.045678265
0.023	0.04795501	0.08896823	0.029055043	0.024149514	0.017339685	0.047566736
0.024	0.049145479	0.09169831	0.03074088	0.024762011	0.018618891	0.049442975
0.025	0.050321561	0.094378996	0.03239233	0.025365897	0.019905616	0.051306495
0.026	0.051482656	0.09700858	0.034008697	0.025960807	0.021199622	0.053156838
0.027	0.052628184	0.099585402	0.035589321	0.026546385	0.022500665	0.05499358
0.028	0.053757589	0.102107855	0.037133581	0.027122289	0.023808502	0.056816327
0.029	0.054870337	0.104574385	0.038640891	0.027688185	0.025122883	0.058624716
0.03	0.055965916	0.106983491	0.040110708	0.028243752	0.026443556	0.060418417
0.031	0.057043837	0.109333729	0.041542524	0.028788679	0.027770266	0.062197132
0.032	0.058103638	0.111623713	0.04293587	0.02932267	0.029102754	0.063960597
0.033	0.059144878	0.113852115	0.044290318	0.029845438	0.030440756	0.065708577
0.034	0.06016714	0.116017665	0.045605478	0.03035671	0.031784004	0.067440875
0.035	0.061170036	0.118119158	0.046880999	0.030856227	0.033132227	0.069157321
0.036	0.062153198	0.120155447	0.048116569	0.031343741	0.034485146	0.070857782
0.037	0.063116285	0.122125451	0.049311914	0.03181902	0.035842482	0.072542157
0.038	0.064058982	0.124028152	0.0504668	0.032281842	0.037203945	0.074210374
0.039	0.064980998	0.125862597	0.051581032	0.032732001	0.038569244	0.075862397
0.04	0.065882067	0.127627899	0.052654452	0.033169304	0.03993808	0.077498219
0.041	0.066761948	0.129323236	0.053686941	0.033593573	0.041310149	0.079117865
0.042	0.067620424	0.130947855	0.054678417	0.034004643	0.042685141	0.08072139
0.043	0.068457305	0.132501071	0.055628837	0.034402363	0.044062739	0.082308882
0.044	0.069272422	0.133982266	0.056538192	0.034786598	0.045442622	0.083880454
0.045	0.070065631	0.13539089	0.057406513	0.035157226	0.046824458	0.08543625
0.046	0.070836814	0.136726465	0.058233865	0.035514139	0.048207912	0.086976443
0.047	0.071585872	0.137988578	0.059020349	0.035857244	0.049592641	0.088501232
0.048	0.072312733	0.13917689	0.0597661	0.036186463	0.050978294	0.090010841
0.049	0.073017343	0.140291129	0.060471288	0.036501731	0.052364513	0.091505522
0.05	0.073699672	0.141331093	0.061136116	0.036802998	0.053750935	0.092985549
0.051	0.07435971	0.14229665	0.061760821	0.037090229	0.055137186	0.09445122
0.052	0.07499747	0.143187736	0.062345672	0.037363403	0.056522887	0.095902857
0.053	0.075612981	0.14400436	0.062890969	0.037622512	0.05790765	0.097340802
0.054	0.076206294	0.144746595	0.063397041	0.037867563	0.05929108	0.098765416
0.055	0.076777477	0.145414585	0.06386425	0.038098576	0.060672774	0.100177079
0.056	0.077326616	0.146008543	0.064292985	0.038315585	0.062052323	0.101576191
0.057	0.077853814	0.146528747	0.064683663	0.038518639	0.063429306	0.102963167
0.058	0.078359189	0.146975543	0.06503673	0.038707799	0.064803299	0.104338436
0.059	0.078842878	0.147349343	0.065352655	0.038883137	0.066173867	0.105702444
0.06	0.079305028	0.147650624	0.065631936	0.039044743	0.067540569	0.107055646
0.061	0.079745803	0.147879925	0.065875093	0.039192715	0.068902955	0.108398511
0.062	0.080165379	0.148037852	0.06608267	0.039327165	0.070260568	0.109731517
0.063	0.080563945	0.14812507	0.066255234	0.039448218	0.071612943	0.11105515
0.064	0.0809417	0.148142305	0.066393374	0.03955601	0.072959608	0.112369906
0.065	0.081298856	0.148090344	0.066497698	0.039650689	0.074300084	0.113676285
0.066	0.081635632	0.14797003	0.066568834	0.039732412	0.075633882	0.11497479
0.067	0.08195226	0.147782265	0.06660743	0.039801351	0.076960509	0.11626593
0.068	0.082248977	0.147528006	0.066614149	0.039857686	0.078279464	0.117550215
0.069	0.082526031	0.147208261	0.066589672	0.039901608	0.079590236	0.118828155
0.07	0.082783673	0.146824093	0.066534697	0.039933318	0.080892311	0.120100259
0.071	0.083022165	0.146376614	0.066449934	0.039953026	0.082185167	0.121367036
0.072	0.083241772	0.145866986	0.066336108	0.039960952	0.083468274	0.122628988
0.073	0.083442764	0.145296415	0.066193955	0.039957327	0.084741098	0.123886615
0.074	0.083625419	0.144666156	0.066024226	0.039942387	0.086003096	0.12514041
0.075	0.083790014	0.143977504	0.06582768	0.039916379	0.087253722	0.126390858
0.076	0.083936833	0.143231796	0.065605087	0.039879557	0.088492422	0.127638435
0.077	0.084066162	0.14243041	0.065357224	0.039832185	0.089718638	0.12888361
0.078	0.084178289	0.14157476	0.065084878	0.039774531	0.090931807	0.130126837
0.079	0.084273505	0.140666294	0.064788842	0.039706872	0.092131359	0.13136856
0.08	0.084352102	0.139706497	0.064469916	0.039629493	0.093316722	0.132609209
0.081	0.084414373	0.138696882	0.064128905	0.039542683	0.094487319	0.133849201
0.082	0.084460612	0.137638993	0.063766616	0.039446739	0.09564257	0.135088934
0.083	0.084491113	0.136534399	0.063383863	0.039341963	0.096781889	0.136328793
0.084	0.08450617	0.135384697	0.062981461	0.039228664	0.097904691	0.137569143
0.085	0.084506078	0.134191505	0.062560226	0.039107154	0.099010386	0.138810332
0.086	0.084491131	0.132956462	0.062120975	0.038977753	0.100098383	0.140052686
0.087	0.084461622	0.131681224	0.061664528	0.038840783	0.10116809	0.141296514
0.088	0.084417842	0.130367467	0.061191699	0.038696572	0.102218913	0.142542101
0.089	0.084360084	0.129016878	0.060703306	0.038545452	0.103250259	0.143789712
0.09	0.084288636	0.127631157	0.060200161	0.038387758	0.104261535	0.145039587
0.091	0.084203788	0.126212015	0.059683075	0.038223831	0.10525215	0.146291944
0.092	0.084105825	0.12476117	0.059152854	0.038054013	0.106221513	0.147546976
0.093	0.083995034	0.123280344	0.058610299	0.037878649	0.107169036	0.148804853
0.094	0.083871696	0.121771266	0.058056209	0.03769809	0.108094135	0.150065717
0.095	0.083736094	0.120235665	0.057491372	0.037512687	0.108996229	0.151329685
0.096	0.083588507	0.118675268	0.056916575	0.037322793	0.109874743	0.152596847
0.097	0.083429212	0.117091802	0.056332593	0.037128765	0.110729105	0.153867268
0.098	0.083258485	0.115486988	0.055740196	0.036930961	0.111558752	0.155140983
0.099	0.083076599	0.11386254	0.055140145	0.03672974	0.112363127	0.156417999
0.1	0.082883826	0.112220166	0.054533192	0.036525463	0.113141679	0.157698298
0.101	0.082680434	0.110561562	0.05392008	0.036318492	0.11389387	0.158981829
0.102	0.082466692	0.108888412	0.053301539	0.03610919	0.114619169	0.160268516
0.103	0.082242864	0.107202386	0.052678293	0.035897921	0.115317056	0.161558252
0.104	0.082009213	0.105505139	0.052051052	0.035685049	0.115987023	0.162850901
0.105	0.081766001	0.10379831	0.051420514	0.035470937	0.116628575	0.164146298
0.106	0.081513488	0.102083515	0.050787367	0.035255949	0.117241231	0.165444248
0.107	0.081251931	0.100362354	0.050152287	0.035040448	0.117824523	0.166744527
0.108	0.080981586	0.098636402	0.049515933	0.034824798	0.118378	0.168046883
0.109	0.080702707	0.096907213	0.048878957	0.034609359	0.118901227	0.169351032
0.11	0.080415547	0.095176312	0.048241993	0.034394493	0.119393788	0.170656664
0.111	0.080120357	0.093445202	0.047605662	0.034180557	0.119855284	0.171963437
0.112	0.079817386	0.091715357	0.046970574	0.033967909	0.120285336	0.173270983
0.113	0.079506882	0.08998822	0.04633732	0.033756904	0.120683588	0.174578904
0.114	0.079189092	0.088265208	0.045706479	0.033547896	0.121049703	0.175886776
0.115	0.078864261	0.086547703	0.045078617	0.033341233	0.121383368	0.177194144
0.116	0.078532633	0.084837057	0.044454281	0.033137263	0.121684294	0.178500528
0.117	0.078194451	0.083134588	0.043834006	0.03293633	0.121952218	0.179805424
0.118	0.077849956	0.081441582	0.043218311	0.032738776	0.122186901	0.181108297
0.119	0.077499388	0.079759287	0.042607699	0.032544936	0.122388133	0.182408589
0.12	0.077142987	0.078088918	0.042002658	0.032355144	0.122555731	0.183705718
0.121	0.076780991	0.076431652	0.041403661	0.032169729	0.122689542	0.184999077
0.122	0.076413637	0.07478863	0.040811165	0.031989016	0.122789443	0.186288035
0.123	0.07604116	0.073160953	0.04022561	0.031813322	0.122855341	0.187571939
0.124	0.075663796	0.071549688	0.039647422	0.031642964	0.122887177	0.188850114
0.125	0.075281778	0.06995586	0.039077013	0.03147825	0.122884925	0.190121865
0.126	0.074895339	0.068380456	0.038514775	0.031319484	0.122848591	0.191386475
0.127	0.07450471	0.066824423	0.037961089	0.031166963	0.12277822	0.192643211
0.128	0.074110121	0.065288668	0.037416318	0.031020979	0.12267389	0.193891317
